<?xml version="1.0" encoding="UTF-8"?>
<svg version="1.1" xmlns="http://www.w3.org/2000/svg" width="512" height="512">
<path d="M0 0 C2.75946795 1.27438366 5.14860258 2.80695914 7.64038086 4.5390625 C12.05626287 7.5173331 15.18140977 9.46050158 20.62304688 8.98217773 C24.25829582 7.93962924 24.25829582 7.93962924 27.59179688 6.56811523 C39.31974473 2.04870195 52.68865413 3.98056648 63.97070312 8.93920898 C77.16912538 16.15580993 85.43689004 28.71635179 90.84570312 42.31420898 C91.29834223 43.95594327 91.73796831 45.60138286 92.15820312 47.25170898 C93.57751781 52.02656395 96.75359149 53.71851173 100.98242188 56.02514648 C101.59730469 56.45053711 102.2121875 56.87592773 102.84570312 57.31420898 C102.84570312 58.30420898 102.84570312 59.29420898 102.84570312 60.31420898 C103.91739746 60.71929687 103.91739746 60.71929687 105.01074219 61.13256836 C107.87433726 62.32614399 110.50039205 63.70247421 113.20507812 65.22045898 C114.22915771 65.79401123 115.2532373 66.36756348 116.30834961 66.95849609 C117.39317627 67.57088135 118.47800293 68.1832666 119.59570312 68.81420898 C120.72242432 69.44786377 121.84914551 70.08151855 123.01000977 70.734375 C129.80088055 74.56421462 136.55555058 78.44756499 143.26098633 82.42480469 C149.57295063 86.16725695 155.92521701 89.8380705 162.28320312 93.50170898 C163.38100098 94.13463867 164.47879883 94.76756836 165.60986328 95.41967773 C170.76892103 98.39292221 175.92964619 101.3632332 181.09355164 104.32804871 C182.82974402 105.32515534 184.56538609 106.32321999 186.30102539 107.32128906 C188.45940534 108.562385 190.6186754 109.80193495 192.77905273 111.03955078 C194.72592402 112.15957161 196.66329164 113.29636288 198.58830261 114.45355225 C201.81488289 116.36361148 201.81488289 116.36361148 205.23495483 117.85133362 C214.16064015 122.28037806 214.16064015 122.28037806 215.9841156 127.69395447 C216.35328198 131.91982682 216.31244546 135.96042185 216.11523438 140.18920898 C216.09095304 141.72469257 216.07246433 143.26027766 216.05949402 144.79589844 C216.01011123 148.81658515 215.8826979 152.83105618 215.73834229 156.8493042 C215.60476515 160.95784386 215.54586085 165.0674 215.48046875 169.17749023 C215.34150542 177.22590005 215.12000124 185.26927923 214.84570312 193.31420898 C214.21664912 193.5093896 213.58759512 193.70457022 212.93947887 193.9056654 C205.70920055 196.38013511 198.85881634 199.37038129 193.84570312 205.31420898 C190.39980478 214.58354173 191.80263698 225.40456836 192.37072206 235.11475205 C192.57236414 239.06954662 192.63151151 243.02607148 192.69987488 246.98503113 C192.92880946 258.73962859 193.37943542 270.48451708 193.8704834 282.23077393 C194.24990172 291.37025739 194.56725417 300.5035042 194.7069599 309.65018004 C194.77272603 313.58374003 194.89099977 317.50015213 195.13801003 321.42682838 C196.36032044 341.15214868 196.36032044 341.15214868 192.84570312 349.31420898 C186.76466893 356.08019397 178.5889186 359.4876464 170.29805565 362.82806969 C164.51949342 365.31557592 159.23598325 368.58030715 153.84570312 371.81420898 C151.6837342 373.06652817 149.51990802 374.31565139 147.35351562 375.56030273 C146.28133789 376.1788916 145.20916016 376.79748047 144.10449219 377.43481445 C140.82870747 379.32401064 137.5521442 381.21185007 134.27539062 383.09936523 C115.99985023 393.62914327 97.75954535 404.2176971 79.59570312 414.93920898 C78.69770996 415.46925537 77.7997168 415.99930176 76.87451172 416.54541016 C72.38439959 419.20161883 67.90694371 421.87671402 63.44726562 424.58374023 C62.56844727 425.11596191 61.68962891 425.64818359 60.78417969 426.1965332 C59.15077431 427.1874658 57.51965559 428.18218451 55.89160156 429.18188477 C51.68005908 431.7365011 47.42305404 434.05786581 43.00195312 436.23217773 C36.81921324 439.27638869 30.89869845 442.67975845 24.97070312 446.18920898 C23.92930176 446.79764648 22.88790039 447.40608398 21.81494141 448.03295898 C17.31043002 450.66578392 12.82062281 453.31224574 8.39257812 456.07202148 C7.75819824 456.45890137 7.12381836 456.84578125 6.47021484 457.24438477 C4.85463857 458.23230763 3.25187539 459.24110282 1.65039062 460.25170898 C-1.15429688 461.31420898 -1.15429688 461.31420898 -4.06835938 460.76342773 C-7.64742119 459.08262782 -11.03204751 457.18147427 -14.40429688 455.12670898 C-15.92048603 454.21922494 -17.43746575 453.31306093 -18.95507812 452.40795898 C-19.78346191 451.91295898 -20.6118457 451.41795898 -21.46533203 450.90795898 C-26.48097553 447.93518608 -31.53847915 445.03481426 -36.59179688 442.12670898 C-38.25033691 441.17115112 -38.25033691 441.17115112 -39.94238281 440.19628906 C-42.21453769 438.88720242 -44.48683696 437.57836636 -46.75927734 436.26977539 C-51.15000262 433.74067217 -55.5389853 431.20855596 -59.92773438 428.67602539 C-62.07471823 427.43715592 -64.2218531 426.19854814 -66.36914062 424.96020508 C-71.38556632 422.06710606 -76.40105411 419.17242121 -81.41293335 416.27145386 C-83.17087756 415.25403193 -84.92914129 414.23716437 -86.6875 413.22045898 C-88.88084088 411.95202088 -91.07359535 410.68256796 -93.265625 409.41186523 C-98.05714613 406.64219984 -102.86235913 403.91177019 -107.72851562 401.27514648 C-113.2282168 398.29386674 -118.63392874 395.1671087 -124.02929688 392.00170898 C-125.05104004 391.40414795 -126.0727832 390.80658691 -127.12548828 390.19091797 C-132.83626378 386.84954331 -138.54216459 383.49986674 -144.24804688 380.15014648 C-146.06564969 379.08324733 -147.88329235 378.01641617 -149.70098877 376.94967651 C-150.91876472 376.2350081 -152.13649755 375.52026621 -153.35418701 374.80545044 C-163.52326856 368.83735146 -173.72348031 362.92501988 -183.94482422 357.046875 C-184.9523877 356.46736084 -185.95995117 355.88784668 -186.99804688 355.29077148 C-187.87654297 354.78626465 -188.75503906 354.28175781 -189.66015625 353.76196289 C-190.48322266 353.2842041 -191.30628906 352.80644531 -192.15429688 352.31420898 C-193.4535548 351.70471106 -193.4535548 351.70471106 -194.77906036 351.08290005 C-197.15429688 349.31420898 -197.15429688 349.31420898 -197.72649384 346.72968388 C-197.70198402 345.68612956 -197.67747421 344.64257524 -197.65222168 343.56739807 C-197.62963036 341.76976768 -197.62963036 341.76976768 -197.60658264 339.93582153 C-197.56496506 338.61895355 -197.52334747 337.30208557 -197.48046875 335.9453125 C-197.4545433 334.54568214 -197.43112137 333.1460035 -197.41001892 331.74629211 C-197.36115676 328.72899852 -197.29844576 325.71241302 -197.22627258 322.69558907 C-197.11599908 317.91616821 -197.06086536 313.1371178 -197.01794434 308.35667419 C-197.00258724 306.71870092 -196.98718309 305.0807281 -196.97173309 303.4427557 C-196.9640261 302.6223149 -196.9563191 301.8018741 -196.94837856 300.95657146 C-196.83943229 289.82873216 -196.68519877 278.7033299 -196.41748047 267.578125 C-196.23730373 260.07249361 -196.13284735 252.56982156 -196.11275721 245.06200546 C-196.09897251 241.09071508 -196.04707564 237.12831357 -195.90159607 233.15948677 C-194.66833059 217.01808586 -194.66833059 217.01808586 -200.31710815 202.76978683 C-205.96300506 198.23101365 -212.26589165 195.44039385 -219.15429688 193.31420898 C-219.667042 184.54442819 -220.05626673 175.77987917 -220.29416466 166.99831867 C-220.4084499 162.91842174 -220.56281432 158.84884771 -220.81396484 154.77490234 C-222.38803811 128.56054119 -222.38803811 128.56054119 -217.09918213 121.61557007 C-212.0026943 117.25701184 -206.32685237 114.75180426 -200.07351685 112.47416687 C-195.16900337 110.52534864 -190.77429071 107.74084849 -186.27929688 105.00170898 C-184.70109636 104.08458335 -183.12058913 103.17140799 -181.53710938 102.26342773 C-180.42078125 101.62018555 -179.30445313 100.97694336 -178.15429688 100.31420898 C-178.89679688 99.58459961 -179.63929688 98.85499023 -180.40429688 98.10327148 C-190.82368259 87.53588314 -197.99795463 75.62576626 -198.46679688 60.56420898 C-198.09713901 44.99966735 -191.34663203 29.52906269 -180.43164062 18.42749023 C-170.09198693 8.83271725 -159.41293864 3.90615301 -145.11523438 4.09936523 C-119.51706322 5.95675232 -95.18195916 20.16619578 -76.37304688 36.97827148 C-74.25640146 38.55365594 -74.25640146 38.55365594 -71.87182617 38.08959961 C-68.73295452 37.19398768 -66.27911914 35.88300411 -63.45507812 34.24389648 C-62.34068359 33.60186279 -61.22628906 32.9598291 -60.078125 32.29833984 C-58.87427287 31.59542652 -57.67049871 30.89237964 -56.46679688 30.18920898 C-55.22043019 29.46793348 -53.9736797 28.74732081 -52.7265625 28.02734375 C-50.14905601 26.53793221 -47.57386536 25.04463027 -45.00048828 23.5480957 C-41.32170926 21.40952943 -37.63574026 19.28365522 -33.94726562 17.16186523 C-29.63970952 14.68279672 -25.33292253 12.20243935 -21.02929688 9.71655273 C-20.06507813 9.16596191 -19.10085937 8.61537109 -18.10742188 8.0480957 C-16.02904923 6.8278078 -13.97882412 5.5589319 -11.95117188 4.25610352 C-10.90445313 3.59594238 -9.85773438 2.93578125 -8.77929688 2.25561523 C-7.37550781 1.34017944 -7.37550781 1.34017944 -5.94335938 0.40625 C-3.15429688 -0.68579102 -3.15429688 -0.68579102 0 0 Z M-176.15429688 35.31420898 C-177.0844132 45.31295945 -173.19354832 55.10362341 -167.19726562 62.96655273 C-163.53052565 67.18014877 -159.68908263 71.04212127 -155.15429688 74.31420898 C-154.4563501 74.84111328 -153.75840332 75.36801758 -153.03930664 75.91088867 C-150.35204834 77.63854675 -148.29389833 78.67705058 -145.15429688 79.31420898 C-140.50510965 78.00666089 -136.74615422 75.553509 -132.71679688 72.93920898 C-130.59560001 71.63565123 -128.47191857 70.33612735 -126.34570312 69.04077148 C-125.31590332 68.40429688 -124.28610352 67.76782227 -123.22509766 67.11206055 C-117.1469567 63.55351149 -110.69063651 60.90304628 -104.15429688 58.31420898 C-113.99994481 49.93002442 -126.22277242 44.38152665 -138.21679688 39.81420898 C-139.07208984 39.48839844 -139.92738281 39.16258789 -140.80859375 38.8269043 C-149.04387601 35.80687288 -156.73744879 33.96701002 -165.52929688 34.12670898 C-166.57537109 34.12767578 -166.57537109 34.12767578 -167.64257812 34.12866211 C-170.74230604 34.15543519 -173.19359541 34.3273085 -176.15429688 35.31420898 Z M63.84570312 34.31420898 C66.40561937 36.32557174 68.89160612 37.94266395 71.84570312 39.31420898 C71.84570312 37.99420898 71.84570312 36.67420898 71.84570312 35.31420898 C69.20570313 34.98420898 66.56570313 34.65420898 63.84570312 34.31420898 Z " fill="#FEDC33" transform="translate(258.154296875,25.685791015625)"/>
<path d="M0 0 C0 8.25 0 16.5 0 25 C3.48323777 22.99222868 6.96636043 20.9842594 10.44921875 18.97583008 C12.20040015 17.96609926 13.95175998 16.95667793 15.703125 15.94726562 C16.8375 15.29306641 17.971875 14.63886719 19.140625 13.96484375 C20.28039795 13.31362549 21.4201709 12.66240723 22.59448242 11.99145508 C24.86783706 10.66205844 27.11613378 9.28887196 29.3371582 7.8737793 C30.38218506 7.21676025 31.42721191 6.55974121 32.50390625 5.8828125 C33.4276001 5.28227051 34.35129395 4.68172852 35.30297852 4.06298828 C38 3 38 3 41.00219727 3.67407227 C43.56584895 4.88026351 45.89246444 6.26037343 48.24121094 7.84228516 C50.94325188 9.62089123 53.75419282 11.203355 56.5559082 12.81860352 C59.33237273 14.42596711 62.08488675 16.07154823 64.83520508 17.72314453 C67.87151767 19.51404505 70.93933284 21.25104734 74 23 C73.67 15.74 73.34 8.48 73 1 C76.73255129 2.49302052 79.82962441 3.95145089 83.26171875 5.94921875 C84.28531494 6.54259033 85.30891113 7.13596191 86.36352539 7.74731445 C87.46043701 8.38757568 88.55734863 9.02783691 89.6875 9.6875 C90.84281708 10.35866231 91.99833825 11.02947341 93.15405273 11.69995117 C95.56081809 13.09651685 97.96669295 14.49459993 100.37207031 15.89355469 C104.99348989 18.57930438 109.62662164 21.24457085 114.25927734 23.91088867 C122.87629916 28.87156738 131.48575005 33.84494971 140.0625 38.875 C140.76511963 39.28596924 141.46773926 39.69693848 142.19165039 40.12036133 C146.87952283 42.87952283 146.87952283 42.87952283 148 44 C148.0942174 46.11681317 148.11742761 48.23680758 148.11352539 50.35571289 C148.11367142 51.01910172 148.11381744 51.68249054 148.1139679 52.36598206 C148.11326881 54.56823956 148.10547665 56.77041345 148.09765625 58.97265625 C148.09579206 60.49580336 148.09436816 62.01895107 148.09336853 63.542099 C148.08954346 67.55837651 148.07971328 71.57461808 148.06866455 75.59088135 C148.05845019 79.68623366 148.05387086 83.78159176 148.04882812 87.87695312 C148.03809099 95.91798712 148.02049429 103.95898495 148 112 C144.37 113.98 140.74 115.96 137 118 C137.0207811 119.79658554 137.04156219 121.59317108 137.06297302 123.44419861 C137.2490635 140.37970358 137.35705785 157.31412122 137.38603115 174.25064754 C137.40292325 182.95804661 137.44771857 191.66361282 137.55883789 200.37036133 C137.65565147 207.96178477 137.6994644 215.55137611 137.68036038 223.14342505 C137.67208009 227.16220548 137.68983833 231.1769714 137.77114677 235.19502068 C138.23979253 259.60600922 138.23979253 259.60600922 134.55829239 265.18464088 C131.14465538 268.4370184 127.41340456 270.0496662 122.93608284 271.35726929 C119.69284281 272.43394325 116.99476708 274.22694936 114.09375 276.01953125 C111.89661659 277.28521482 109.6987071 278.54955217 107.5 279.8125 C105.829375 280.77446289 105.829375 280.77446289 104.125 281.75585938 C102.00350769 282.97698025 99.87871358 284.19239047 97.75 285.40087891 C96.09952458 286.36062802 94.46666943 287.35330699 92.875 288.40771484 C89.95382804 290.32073014 88.52629609 291.08610865 85.015625 290.51171875 C81.50072383 288.74971519 78.10540702 286.85700297 74.75 284.8125 C73.23381085 283.90501595 71.71683112 282.99885194 70.19921875 282.09375 C68.95664307 281.35125 68.95664307 281.35125 67.68896484 280.59375 C62.67332135 277.6209771 57.61581773 274.72060528 52.5625 271.8125 C51.45680664 271.17546143 50.35111328 270.53842285 49.21191406 269.88208008 C46.93975918 268.57299343 44.66745991 267.26415738 42.39501953 265.95556641 C35.86344928 262.19331431 29.33525548 258.42520596 22.80712891 254.65698242 C17.70141901 251.71030503 12.59451664 248.76575285 7.48348999 245.82830811 C5.05339448 244.43150193 2.62396065 243.03354722 0.19458008 241.63549805 C-1.53304415 240.64194008 -3.2616312 239.65005691 -4.99023438 238.65820312 C-6.02599609 238.06201172 -7.06175781 237.46582031 -8.12890625 236.8515625 C-9.04744385 236.32385254 -9.96598145 235.79614258 -10.91235352 235.25244141 C-13 234 -13 234 -14 233 C-14.08686316 231.14023387 -14.10240004 229.27711771 -14.09092712 227.4153595 C-14.08626434 226.20260345 -14.08160156 224.98984741 -14.07679749 223.74034119 C-14.06675185 222.38394158 -14.05669596 221.02754204 -14.04663086 219.67114258 C-14.03984508 218.25217949 -14.03363289 216.83321356 -14.0279541 215.41424561 C-14.0187 213.14297024 -14.00894945 210.87170453 -13.99737632 208.60043967 C-13.96866394 202.96330802 -13.95702936 197.32633442 -13.95594788 191.68913269 C-13.95576611 190.87216897 -13.95558434 190.05520526 -13.95539707 189.21348506 C-13.95494701 185.8411802 -13.95502958 182.46887549 -13.9552325 179.09657061 C-13.95496776 169.51355856 -13.93825479 159.93119955 -13.87329102 150.34838867 C-13.82184867 142.74323867 -13.80565111 135.13893477 -13.83075243 127.53363913 C-13.84270018 123.50748616 -13.83674776 119.48313793 -13.78806877 115.45722389 C-13.74262635 111.66673468 -13.74395141 107.87911677 -13.78081512 104.08856201 C-13.7860774 102.6994003 -13.77430453 101.31005105 -13.74402809 99.92120934 C-13.65896326 95.76276346 -13.69993439 91.9696206 -15 88 C-17.4457146 85.88586302 -19.80987106 84.63697898 -22.72729015 83.26317501 C-25 82 -25 82 -26.2900238 78.75076294 C-26.30702835 77.58020355 -26.3240329 76.40964417 -26.34155273 75.20361328 C-26.36389481 74.55234467 -26.38623688 73.90107605 -26.40925598 73.23007202 C-26.46825779 71.09094927 -26.45410474 68.96004395 -26.43359375 66.8203125 C-26.4479674 65.32345032 -26.46485948 63.82661041 -26.48414612 62.32980347 C-26.51237277 59.19692205 -26.50307622 56.06687699 -26.46850586 52.93408203 C-26.42835658 48.93399412 -26.49215897 44.94338815 -26.58582973 40.94447517 C-26.64474323 37.853626 -26.64246251 34.76502136 -26.62278938 31.67376328 C-26.62166874 30.20097573 -26.64043826 28.7280243 -26.68014336 27.25577164 C-26.78755326 22.59452056 -26.62474392 18.43656558 -25 14 C-21.03431597 10.30602925 -16.92215091 8.2809721 -12 6 C-10.08888648 4.85853592 -8.18970343 3.69641231 -6.3125 2.5 C-2.25 0 -2.25 0 0 0 Z " fill="#D02554" transform="translate(169,196)"/>
<path d="M0 0 C1.28143539 0.77814135 2.55575622 1.56807334 3.82421875 2.3671875 C5.33103918 3.28418426 6.83892293 4.19943518 8.34765625 5.11328125 C9.16975586 5.61456543 9.99185547 6.11584961 10.83886719 6.63232422 C15.83199813 9.63969593 20.89508484 12.52644906 25.94921875 15.4296875 C28.198028 16.72506716 30.44672446 18.02064264 32.6953125 19.31640625 C33.82437012 19.96657715 34.95342773 20.61674805 36.11669922 21.28662109 C42.65708631 25.05395178 49.19415976 28.82703059 55.73095703 32.60058594 C60.72434832 35.48263702 65.71886743 38.36264161 70.71878052 41.23336792 C72.46196607 42.2343856 74.20468247 43.23621533 75.94726562 44.23828125 C78.11301493 45.48336789 80.27960746 46.7269896 82.44726562 47.96875 C84.39335342 49.08834802 86.3299346 50.22472045 88.25418091 51.38145447 C91.48087483 53.29157891 91.48087483 53.29157891 94.90097046 54.77931213 C103.82665577 59.20835658 103.82665577 59.20835658 105.65013123 64.62193298 C106.0192976 68.84780533 105.97846109 72.88840036 105.78125 77.1171875 C105.75696867 78.65267108 105.73847996 80.18825617 105.72550964 81.72387695 C105.67612685 85.74456367 105.54871352 89.75903469 105.40435791 93.77728271 C105.27078078 97.88582237 105.21187647 101.99537852 105.14648438 106.10546875 C105.00752104 114.15387857 104.78601687 122.19725775 104.51171875 130.2421875 C103.88266475 130.43736812 103.25361074 130.63254873 102.6054945 130.83364391 C95.37521617 133.30811363 88.52483196 136.2983598 83.51171875 142.2421875 C80.0658204 151.51152025 81.46865261 162.33254687 82.03673768 172.04273057 C82.23837977 175.99752514 82.29752714 179.95405 82.3658905 183.91300964 C82.59482509 195.6676071 83.04545105 207.41249559 83.53649902 219.15875244 C83.91591734 228.2982359 84.2332698 237.43148272 84.37297553 246.57815856 C84.43874165 250.51171855 84.55701539 254.42813064 84.80402565 258.3548069 C86.02633607 278.0801272 86.02633607 278.0801272 82.51171875 286.2421875 C76.43072749 293.00812471 68.25503663 296.41561332 59.9642086 299.75597191 C54.18563232 302.24351294 48.90190695 305.50806634 43.51171875 308.7421875 C41.3614617 309.98798365 39.20935507 311.23059771 37.0546875 312.46875 C35.44859619 313.3954248 35.44859619 313.3954248 33.81005859 314.34082031 C30.41633106 316.29717487 27.02084745 318.2504528 23.625 320.203125 C8.53703034 328.86930544 8.53703034 328.86930544 -6.39135742 337.80615234 C-10.3886316 340.2421875 -10.3886316 340.2421875 -11.48828125 340.2421875 C-11.72193236 321.44044489 -11.89824747 302.638997 -12.00640297 283.83610344 C-12.05795782 275.1054111 -12.1282354 266.375621 -12.24267578 257.64550781 C-12.34238111 250.03583143 -12.40687019 242.42680838 -12.4291662 234.81649697 C-12.44219957 230.78683407 -12.47279696 226.75904008 -12.54558182 222.72997665 C-12.61356973 218.93563784 -12.6343796 215.14393297 -12.61935806 211.34904289 C-12.62210482 209.95816781 -12.6419443 208.56720293 -12.680336 207.17685509 C-12.78957751 203.01588424 -12.77284187 199.22038462 -11.48828125 195.2421875 C-9.03931089 193.13146958 -6.66901832 191.88544284 -3.75094032 190.51263237 C-1.1253925 189.36175036 -1.1253925 189.36175036 -0.28573608 185.93911743 C-0.3079422 184.74442841 -0.33014832 183.54973938 -0.35302734 182.31884766 C-0.35083694 181.32266922 -0.35083694 181.32266922 -0.34860229 180.30636597 C-0.35552863 178.12790731 -0.4330157 175.95819522 -0.51171875 173.78125 C-0.5303869 172.26529619 -0.54461357 170.74928174 -0.55459595 169.23324585 C-0.5926519 165.25644249 -0.6907487 161.28333366 -0.80163574 157.3079834 C-0.90422154 153.24619536 -0.9496648 149.18380579 -1 145.12109375 C-1.10702149 137.15976885 -1.27751676 129.20143857 -1.48828125 121.2421875 C-2.21371124 120.82412338 -2.93914124 120.40605927 -3.68655396 119.97532654 C-6.43931781 118.3886893 -9.19189906 116.80173581 -11.94436646 115.21458435 C-13.69690614 114.20414084 -15.44964647 113.19404537 -17.20239258 112.18395996 C-24.60397495 107.9156353 -31.99000532 103.62170425 -39.36328125 99.3046875 C-47.48837892 94.55428284 -55.64282923 89.8582656 -63.82122803 85.20043945 C-73.32423057 79.78753749 -82.80898914 74.34534762 -92.23828125 68.8046875 C-93.17945801 68.25482178 -94.12063477 67.70495605 -95.09033203 67.13842773 C-96.36239502 66.38734741 -96.36239502 66.38734741 -97.66015625 65.62109375 C-98.40362305 65.1835376 -99.14708984 64.74598145 -99.91308594 64.29516602 C-100.43290039 63.94768311 -100.95271484 63.6002002 -101.48828125 63.2421875 C-101.48828125 62.9121875 -101.48828125 62.5821875 -101.48828125 62.2421875 C-99.92207031 61.94828125 -99.92207031 61.94828125 -98.32421875 61.6484375 C-75.85097882 57.18228584 -53.98350083 49.38350481 -36.48828125 34.2421875 C-35.25464844 33.3140625 -35.25464844 33.3140625 -33.99609375 32.3671875 C-26.02680241 25.61439234 -21.57126959 16.66927739 -19.42382812 6.62402344 C-18.51651685 2.89956665 -17.44589951 0.7797949 -14.27734375 -1.28515625 C-9.03422661 -3.78093727 -5.04516532 -2.54235654 0 0 Z " fill="#A81E44" transform="translate(368.48828125,88.7578125)"/>
<path d="M0 0 C0 8.25 0 16.5 0 25 C3.48323777 22.99222868 6.96636043 20.9842594 10.44921875 18.97583008 C12.20040015 17.96609926 13.95175998 16.95667793 15.703125 15.94726562 C16.8375 15.29306641 17.971875 14.63886719 19.140625 13.96484375 C20.28039795 13.31362549 21.4201709 12.66240723 22.59448242 11.99145508 C24.86783706 10.66205844 27.11613378 9.28887196 29.3371582 7.8737793 C30.38218506 7.21676025 31.42721191 6.55974121 32.50390625 5.8828125 C33.4276001 5.28227051 34.35129395 4.68172852 35.30297852 4.06298828 C38 3 38 3 41.00219727 3.67407227 C43.56584895 4.88026351 45.89246444 6.26037343 48.24121094 7.84228516 C50.94325188 9.62089123 53.75419282 11.203355 56.5559082 12.81860352 C59.33237273 14.42596711 62.08488675 16.07154823 64.83520508 17.72314453 C67.87151767 19.51404505 70.93933284 21.25104734 74 23 C73.67 15.74 73.34 8.48 73 1 C76.73255129 2.49302052 79.82962441 3.95145089 83.26171875 5.94921875 C84.28531494 6.54259033 85.30891113 7.13596191 86.36352539 7.74731445 C87.46043701 8.38757568 88.55734863 9.02783691 89.6875 9.6875 C90.84281708 10.35866231 91.99833825 11.02947341 93.15405273 11.69995117 C95.56081809 13.09651685 97.96669295 14.49459993 100.37207031 15.89355469 C104.99351625 18.5793197 109.62660987 21.24470963 114.25952148 23.91064453 C118.53025635 26.36973424 122.79614893 28.83715865 127.06201172 31.3046875 C129.84074516 32.9081049 132.62482273 34.50183473 135.41015625 36.09375 C136.98196034 36.99967129 138.5535889 37.90589721 140.125 38.8125 C140.83599854 39.21509033 141.54699707 39.61768066 142.27954102 40.0324707 C143.88694033 40.96552841 145.44992203 41.97453059 147 43 C147 43.66 147 44.32 147 45 C145.40885417 45.91796875 143.81770833 46.8359375 142.2265625 47.75390625 C141.18604736 48.35420654 140.14553223 48.95450684 139.07348633 49.57299805 C136.75302188 50.91172122 134.43254828 52.25042851 132.11206055 53.58911133 C126.58129767 56.77982233 121.05060704 59.97065811 115.52038574 63.16230774 C113.75173525 64.18303909 111.98305046 65.20371098 110.21435547 66.22436523 C107.99065465 67.50761328 105.76701907 68.79097439 103.54345703 70.07446289 C102.52493652 70.66219482 101.50641602 71.24992676 100.45703125 71.85546875 C99.56991455 72.36746826 98.68279785 72.87946777 97.76879883 73.40698242 C95 75 95 75 91.21533203 76.24243164 C89.32450394 77.20195015 89.32450394 77.20195015 88 79 C86.90929641 84.06161709 87.04509112 89.1164171 87.09765625 94.265625 C87.08827078 95.78450661 87.07581273 97.30337209 87.06040955 98.82220459 C87.02816988 102.81412862 87.03762993 106.80490445 87.05578613 110.796875 C87.06694063 114.87252389 87.03864417 118.94787817 87.01367188 123.0234375 C86.97051193 131.01586443 86.97140424 139.00750923 87 147 C71.41261953 138.51125448 55.85590071 129.95355226 40.59204102 120.89282227 C34.19840597 117.10029839 27.75638619 113.39385784 21.3125 109.6875 C12.87444083 104.82775291 4.45110212 99.94469939 -3.9375 95 C-4.7936792 94.49686279 -5.6498584 93.99372559 -6.53198242 93.4753418 C-8.13584161 92.52708614 -9.7303375 91.56271081 -11.31243896 90.57858276 C-13.9747413 88.95151745 -13.9747413 88.95151745 -16.83802795 87.71287537 C-20.06763251 86.09020252 -22.44724116 84.57267576 -25 82 C-26.667262 76.93576566 -26.60135496 71.98956689 -26.53125 66.72265625 C-26.54375897 65.22722195 -26.55923076 63.73180978 -26.57751465 62.23643494 C-26.60268714 59.10927833 -26.58733026 55.98557406 -26.54394531 52.85864258 C-26.492468 48.86630242 -26.54925828 44.88405578 -26.63764191 40.892663 C-26.69264584 37.80602403 -26.68604434 34.72176674 -26.66172791 31.63482475 C-26.65810836 30.16486574 -26.674082 28.69471346 -26.71070862 27.22520638 C-26.80743851 22.57237129 -26.63284048 18.42425804 -25 14 C-21.03289418 10.31079011 -16.91914753 8.28224343 -12 6 C-10.08894569 4.85843679 -8.18977784 3.69629555 -6.3125 2.5 C-2.25 0 -2.25 0 0 0 Z " fill="#DA2759" transform="translate(169,196)"/>
<path d="M0 0 C2.48818065 1.08993603 4.3553525 2.35887573 6.48828125 4.04296875 C21.97640749 15.20723109 40.97860435 20.30270882 59.23828125 24.98046875 C56.6791287 27.87449966 53.76883299 29.53440847 50.41796875 31.421875 C49.84602783 31.74614975 49.27408691 32.0704245 48.68481445 32.40452576 C46.83010149 33.45510258 44.97175688 34.49906513 43.11328125 35.54296875 C40.57041259 36.97965085 38.02930967 38.41944122 35.48828125 39.859375 C34.86243134 40.21343414 34.23658142 40.56749329 33.59176636 40.93228149 C27.68779943 44.27805353 21.84366266 47.72195941 16.03857422 51.23657227 C11.4512439 53.98046875 11.4512439 53.98046875 9.23828125 53.98046875 C9.56828125 76.42046875 9.89828125 98.86046875 10.23828125 121.98046875 C13.86828125 123.96046875 17.49828125 125.94046875 21.23828125 127.98046875 C21.23828125 175.83046875 21.23828125 223.68046875 21.23828125 272.98046875 C17.18832199 271.36048505 13.73632451 269.65379726 9.9765625 267.49609375 C9.38586472 267.15801697 8.79516693 266.81994019 8.18656921 266.47161865 C6.93934754 265.75700689 5.69300938 265.04085113 4.44750977 264.32324219 C2.57559362 263.24476405 0.70116538 262.1707735 -1.17382812 261.09765625 C-7.97392661 257.19726709 -7.97392661 257.19726709 -9.83165741 256.06318092 C-11.81565253 254.89986376 -11.81565253 254.89986376 -14.27191925 253.94309044 C-17.24122243 252.56125163 -19.40796542 251.27057915 -21.76171875 248.98046875 C-23.16619048 244.41172063 -22.87177989 240.01067649 -22.65551758 235.27099609 C-22.62815739 233.8709627 -22.60553539 232.47082991 -22.58728027 231.07064819 C-22.53968351 228.06062769 -22.46220543 225.05339229 -22.36234474 222.04465866 C-22.20786707 217.27764745 -22.14215926 212.51193176 -22.09220886 207.74282837 C-21.93704881 194.18577492 -21.66892128 180.63246685 -21.29956055 167.07958984 C-21.09618448 159.58853496 -20.96945906 152.09996443 -20.92353076 144.60625422 C-20.8954957 140.64454657 -20.8273729 136.69258952 -20.66184425 132.73405075 C-19.33801783 116.65188529 -19.33801783 116.65188529 -24.91680527 102.44068146 C-30.56388698 97.8994728 -36.87210789 95.10997684 -43.76171875 92.98046875 C-44.27446387 84.21068796 -44.6636886 75.44613893 -44.90158653 66.66457844 C-45.01587178 62.58468151 -45.17023619 58.51510748 -45.42138672 54.44116211 C-46.9961734 28.2157755 -46.9961734 28.2157755 -41.7015686 21.28283691 C-36.59422121 16.92750166 -30.91232777 14.43082333 -24.65583801 12.14544678 C-19.83201317 10.20369889 -15.56847659 7.3956795 -11.19921875 4.60546875 C-3.65897 -0.02587673 -3.65897 -0.02587673 0 0 Z " fill="#DA275A" transform="translate(82.76171875,126.01953125)"/>
<path d="M0 0 C1.28143539 0.77814135 2.55575622 1.56807334 3.82421875 2.3671875 C5.33103918 3.28418426 6.83892293 4.19943518 8.34765625 5.11328125 C9.16975586 5.61456543 9.99185547 6.11584961 10.83886719 6.63232422 C15.83199813 9.63969593 20.89508484 12.52644906 25.94921875 15.4296875 C28.198028 16.72506716 30.44672446 18.02064264 32.6953125 19.31640625 C33.82437012 19.96657715 34.95342773 20.61674805 36.11669922 21.28662109 C41.58341852 24.43550802 47.04748173 27.58899572 52.51171875 30.7421875 C58.58887262 34.24864579 64.66612348 37.75493451 70.74456787 41.25915527 C72.49513116 42.26837854 74.24562286 43.27772586 75.99609375 44.28710938 C78.1756404 45.5438641 80.35531707 46.80039336 82.53515625 48.05664062 C84.52581546 49.20460454 86.5151195 50.35492226 88.50292969 51.5078125 C90.63946684 52.7393899 92.78425793 53.95669737 94.93457031 55.1640625 C96.03510742 55.78796875 97.13564453 56.411875 98.26953125 57.0546875 C99.27387207 57.61800781 100.27821289 58.18132812 101.31298828 58.76171875 C102.40135986 59.49455078 102.40135986 59.49455078 103.51171875 60.2421875 C103.51171875 60.9021875 103.51171875 61.5621875 103.51171875 62.2421875 C102.78919922 62.65355957 102.06667969 63.06493164 101.32226562 63.48876953 C87.66276976 71.26985001 74.02357955 79.08095466 60.45507812 87.02001953 C52.08090372 91.91788626 43.68445292 96.77638275 35.26831055 101.60180664 C29.71443539 104.79154639 24.19249567 108.02322792 18.7109375 111.3359375 C17.61716797 111.99142578 16.52339844 112.64691406 15.39648438 113.32226562 C13.31107206 114.57453215 11.23254339 115.83835578 9.16210938 117.11523438 C8.22947266 117.67275391 7.29683594 118.23027344 6.3359375 118.8046875 C5.52213623 119.30097656 4.70833496 119.79726562 3.86987305 120.30859375 C0.93569124 121.4702369 -0.51071265 121.18613238 -3.48828125 120.2421875 C-5.9493085 118.92847189 -8.30299213 117.57457429 -10.67578125 116.1171875 C-12.20102227 115.20048945 -13.72712074 114.2852171 -15.25390625 113.37109375 C-16.5059082 112.61916748 -16.5059082 112.61916748 -17.78320312 111.85205078 C-22.79989151 108.86648731 -27.86542571 105.96540129 -32.92578125 103.0546875 C-35.17450884 101.75916609 -37.42320636 100.46359248 -39.671875 99.16796875 C-40.80093262 98.51779785 -41.92999023 97.86762695 -43.09326172 97.19775391 C-46.4040741 95.29069169 -49.71397386 93.38205794 -53.0234375 91.47265625 C-54.09271484 90.85575928 -55.16199219 90.2388623 -56.26367188 89.60327148 C-58.40460138 88.36763357 -60.54522903 87.13147249 -62.68554688 85.89477539 C-67.76828391 82.95906991 -72.85440021 80.02974974 -77.95321655 77.12207031 C-80.36481208 75.74631959 -82.77440001 74.36707403 -85.18383789 72.98754883 C-86.88818675 72.01366932 -88.59543063 71.04486185 -90.30273438 70.07617188 C-91.33205078 69.48642578 -92.36136719 68.89667969 -93.421875 68.2890625 C-94.32993896 67.77182617 -95.23800293 67.25458984 -96.17358398 66.72167969 C-98.26178921 65.38695511 -99.83406329 64.07285082 -101.48828125 62.2421875 C-99.92207031 61.94828125 -99.92207031 61.94828125 -98.32421875 61.6484375 C-75.85097882 57.18228584 -53.98350083 49.38350481 -36.48828125 34.2421875 C-35.25464844 33.3140625 -35.25464844 33.3140625 -33.99609375 32.3671875 C-26.02680241 25.61439234 -21.57126959 16.66927739 -19.42382812 6.62402344 C-18.51651685 2.89956665 -17.44589951 0.7797949 -14.27734375 -1.28515625 C-9.03422661 -3.78093727 -5.04516532 -2.54235654 0 0 Z " fill="#E6295D" transform="translate(368.48828125,88.7578125)"/>
<path d="M0 0 C0 22.44 0 44.88 0 68 C-3.63 69.98 -7.26 71.96 -11 74 C-10.9792189 75.79658554 -10.95843781 77.59317108 -10.93702698 79.44419861 C-10.7509365 96.37970358 -10.64294215 113.31412122 -10.61396885 130.25064754 C-10.59707675 138.95804661 -10.55228143 147.66361282 -10.44116211 156.37036133 C-10.34434853 163.96178477 -10.3005356 171.55137611 -10.31963962 179.14342505 C-10.32791991 183.16220548 -10.31016167 187.1769714 -10.22885323 191.19502068 C-9.7601772 215.60729643 -9.7601772 215.60729643 -13.44227409 221.18464088 C-16.85702417 224.43684746 -20.58891465 226.04912114 -25.06676483 227.35726929 C-28.30063053 228.43241257 -30.98273978 230.22441707 -33.87109375 232.01953125 C-36.05912172 233.28519337 -38.24791667 234.54953054 -40.4375 235.8125 C-41.54287109 236.45380859 -42.64824219 237.09511719 -43.78710938 237.75585938 C-44.86669922 238.37912109 -45.94628906 239.00238281 -47.05859375 239.64453125 C-48.01048584 240.19471924 -48.96237793 240.74490723 -49.94311523 241.31176758 C-52.33991742 242.63545475 -54.74096684 243.88689432 -57.1910553 245.10551453 C-58.26342988 245.63953904 -58.26342988 245.63953904 -59.35746861 246.18435192 C-59.89950397 246.45351579 -60.44153933 246.72267965 -61 247 C-61.39731214 219.53196116 -61.69699286 192.06435347 -61.88080692 164.59401894 C-61.96842899 151.83855709 -62.08785589 139.08488153 -62.2824707 126.33056641 C-62.4520401 115.21232263 -62.56161674 104.09537236 -62.59950441 92.97587144 C-62.62165084 87.08856384 -62.67358654 81.20495614 -62.79741096 75.31883621 C-62.91310903 69.77391294 -62.94834778 64.23419851 -62.92283058 58.68818283 C-62.92749528 56.65704733 -62.96116224 54.625732 -63.02649307 52.59564209 C-63.48313333 37.66970114 -63.48313333 37.66970114 -59.34771419 33.2235713 C-55.27991303 30.05735695 -50.84190076 27.90691354 -46.10743606 25.92093635 C-42.99058019 24.55888987 -40.16296362 22.84737007 -37.25 21.09375 C-35.1670337 19.89519523 -33.08370128 18.69727653 -31 17.5 C-22.57149334 12.65103468 -14.16023135 7.77671063 -5.81054688 2.79296875 C-1.10583917 0 -1.10583917 0 0 0 Z " fill="#A81E44" transform="translate(317,240)"/>
<path d="M0 0 C0.23202235 8.76202687 0.40953429 17.5229923 0.51812172 26.28742409 C0.57024913 30.35759825 0.64089632 34.42566687 0.75439453 38.49462891 C0.86331135 42.42408153 0.92288969 46.35151429 0.94877243 50.28236008 C0.9672068 51.77932934 1.00321191 53.27619156 1.05730057 54.77229691 C1.13031378 56.87614846 1.13988221 58.97173925 1.13525391 61.07666016 C1.16856308 62.8686937 1.16856308 62.8686937 1.20254517 64.69692993 C-0.28170921 68.7737799 -1.21915435 68.78133336 -5.00715637 70.56616211 C-8.3409426 72.38270365 -9.73066496 73.15308336 -10.89683533 76.82007408 C-11.17989288 80.52395757 -11.15481901 84.15895446 -11.02075195 87.86474609 C-11.00649988 89.28116619 -10.99685448 90.69763898 -10.99145508 92.11412048 C-10.97092673 95.15832396 -10.91977659 98.19991468 -10.84514809 101.24326706 C-10.72906862 106.05991463 -10.69282768 110.87515545 -10.66923523 115.69302368 C-10.59838858 127.65773097 -10.42541862 139.62071537 -10.22668457 151.58392334 C-10.07318301 160.88324075 -9.9491591 170.18091933 -9.91451997 179.48153555 C-9.89337732 184.2671917 -9.81146444 189.04668887 -9.68291247 193.83060813 C-9.6161051 196.81292816 -9.60378315 199.79369857 -9.60613251 202.77668953 C-9.59155298 204.80838762 -9.51196789 206.83929725 -9.43016052 208.86940002 C-9.46690808 212.66545444 -9.62901456 215.45457094 -11 219 C-14.98810363 222.59048136 -19.13007218 224.7272915 -24 227 C-25.34788793 227.77789227 -26.68751489 228.57066038 -28.01098633 229.3894043 C-29.10693115 230.02789307 -30.20287598 230.66638184 -31.33203125 231.32421875 C-31.93834885 231.67837357 -32.54466644 232.03252838 -33.1693573 232.39741516 C-35.04957294 233.49554387 -36.93089714 234.59175022 -38.8125 235.6875 C-41.31986302 237.1482836 -43.82638543 238.61049166 -46.33203125 240.07421875 C-47.21678635 240.59011063 -47.21678635 240.59011063 -48.11941528 241.11642456 C-51.37568275 243.02236456 -54.58503115 244.98407422 -57.76171875 247.01953125 C-61 249 -61 249 -63 249 C-63.23365111 230.19825739 -63.40996622 211.3968095 -63.51812172 192.59391594 C-63.56967657 183.8632236 -63.63995415 175.1334335 -63.75439453 166.40332031 C-63.85409986 158.79364393 -63.91858894 151.18462088 -63.94088495 143.57430947 C-63.95391832 139.54464657 -63.98451571 135.51685258 -64.05730057 131.48778915 C-64.12528848 127.69345034 -64.14609835 123.90174547 -64.13107681 120.10685539 C-64.13382357 118.71598031 -64.15366305 117.32501543 -64.19205475 115.93466759 C-64.30136964 111.7709016 -64.26981162 107.98459223 -63 104 C-59.74823362 100.80463648 -55.70903853 98 -51 98 C-51.33 75.23 -51.66 52.46 -52 29 C-48.04 27.02 -44.08 25.04 -40 23 C-38.02069815 21.91529786 -36.05139473 20.81146629 -34.10546875 19.66796875 C-33.13681885 19.10094238 -32.16816895 18.53391602 -31.17016602 17.94970703 C-30.18588623 17.36817871 -29.20160645 16.78665039 -28.1875 16.1875 C-27.15230225 15.58019043 -26.11710449 14.97288086 -25.05053711 14.34716797 C-18.40585736 10.44218376 -11.78003472 6.50528987 -5.2019043 2.48901367 C-1.10436479 0 -1.10436479 0 0 0 Z " fill="#D09919" transform="translate(368,210)"/>
<path d="M0 0 C1.29574523 0.60822135 2.58717366 1.22564486 3.87670898 1.84692383 C4.59632309 2.18975906 5.31593719 2.5325943 6.05735779 2.88581848 C8.71573086 4.41049972 10.10345933 6.61379373 12 9 C14.69404621 10.82786483 17.55329284 12.30819274 20.4375 13.8125 C22.0494978 14.67853576 23.66016526 15.54705204 25.26953125 16.41796875 C26.46376709 17.06258057 26.46376709 17.06258057 27.68212891 17.72021484 C32.91123581 20.60740448 37.95318088 23.80784232 43 27 C43 26.34 43 25.68 43 25 C46.45985031 26.24939039 49.36664436 27.39660188 52 30 C52.45169067 32.90193176 52.45169067 32.90193176 52.38720703 36.48754883 C52.38148178 37.14159195 52.37575653 37.79563507 52.36985779 38.46949768 C52.35575691 39.88881331 52.33294637 41.30806304 52.30246353 42.72712135 C52.25741764 44.97675066 52.24223611 47.22472493 52.23605347 49.47477722 C52.21514658 55.87042769 52.15668697 62.26481098 52.03808594 68.65942383 C51.96761516 72.57321503 51.94600828 76.48479703 51.95479965 80.39917564 C51.94851052 81.88764486 51.92370515 83.3761589 51.87976456 84.86399269 C51.81937206 86.95328642 51.82124612 89.03434333 51.83642578 91.12426758 C51.81991974 92.30990799 51.8034137 93.4955484 51.78640747 94.71711731 C53.28394391 98.76809516 54.22813729 98.78005533 58.00177002 100.55525208 C61.3491968 102.38144118 62.7307568 103.16601704 63.91786766 106.84310246 C64.23226103 110.57943927 64.23857399 114.24998221 64.13525391 117.99169922 C64.132431 119.42113547 64.13402077 120.8505862 64.13967896 122.28001404 C64.14254326 126.15064809 64.08384917 130.01817022 64.01393938 133.88808203 C63.95133434 137.9358161 63.94554519 141.98362529 63.9336853 146.0317688 C63.90262962 153.6927294 63.82060734 161.35225936 63.72019041 169.01259053 C63.60833256 177.73545661 63.55341367 186.45839181 63.50323606 195.18179679 C63.3987691 213.12200835 63.2229311 231.06088908 63 249 C59.01051008 247.45212545 55.45512951 245.61621128 51.765625 243.4375 C51.16933289 243.08671387 50.57304077 242.73592773 49.9586792 242.37451172 C48.05384241 241.25293351 46.15187646 240.12658924 44.25 239 C42.43571883 237.92999025 40.62107262 236.86075981 38.80289173 235.79738808 C37.54685319 235.05169767 36.29927509 234.29142328 35.06379986 233.51213646 C31.6341658 231.38198755 28.43207846 229.73374733 24.57514954 228.51797485 C19.43244811 226.66929325 15.22435361 224.54175135 12 220 C8.99311577 210.34938638 9.96918965 199.50216392 10.27630305 189.50441313 C10.38309626 185.43966756 10.39260009 181.37467823 10.41273499 177.30874634 C10.46542969 169.62182619 10.60470744 161.93905092 10.77567631 154.25395072 C10.96616689 145.49993906 11.05927593 136.7457217 11.14449871 127.99015117 C11.32186075 109.99109001 11.62056804 91.99587895 12 74 C10.61809699 73.55779428 10.61809699 73.55779428 9.20827675 73.10665512 C5.53323537 71.83899535 2.95550361 70.54107513 0 68 C-0.7215271 64.93743896 -0.7215271 64.93743896 -0.68115234 61.30371094 C-0.68246658 60.30797058 -0.68246658 60.30797058 -0.68380737 59.29211426 C-0.67963769 57.10499011 -0.63302796 54.92096077 -0.5859375 52.734375 C-0.57474283 51.21553218 -0.56620392 49.69666766 -0.56021118 48.17779541 C-0.53733317 44.18562702 -0.47842169 40.19477448 -0.4119873 36.203125 C-0.35054085 32.12778525 -0.32319131 28.05223225 -0.29296875 23.9765625 C-0.22867492 15.98377203 -0.12631086 7.99204982 0 0 Z " fill="#F4C82C" transform="translate(92,180)"/>
<path d="M0 0 C3.68069277 1.43890158 7.05865445 3.06266684 10.5 5.01171875 C11.55316406 5.60533203 12.60632813 6.19894531 13.69140625 6.81054688 C14.78324219 7.42994141 15.87507813 8.04933594 17 8.6875 C19.14520243 9.90085569 21.2910375 11.11309355 23.4375 12.32421875 C24.38496094 12.86135498 25.33242187 13.39849121 26.30859375 13.9519043 C31.8425742 17.02231184 37.42776962 19.99956826 43 23 C43 70.85 43 118.7 43 168 C38.95004074 166.3800163 35.49804326 164.67332851 31.73828125 162.515625 C31.14758347 162.17754822 30.55688568 161.83947144 29.94828796 161.4911499 C28.70106629 160.77653814 27.45472813 160.06038238 26.20922852 159.34277344 C24.33731237 158.2642953 22.46288413 157.19030475 20.58789062 156.1171875 C13.78735952 152.2165502 13.78735952 152.2165502 11.92911816 151.08196831 C9.94752961 149.91982994 9.94752961 149.91982994 7.49828815 148.96931648 C4.52326586 147.58720888 2.35922345 146.29239333 0 144 C-1.46480025 139.41050674 -1.26777366 134.86562899 -1.13525391 130.10009766 C-1.13243096 128.68051352 -1.13402084 127.26091478 -1.13967896 125.84133911 C-1.14254314 121.99755466 -1.08385142 118.15690418 -1.01393938 114.31384706 C-0.95133207 110.29414137 -0.94554502 106.27435995 -0.9336853 102.25424194 C-0.90263026 94.64640046 -0.82060895 87.0399997 -0.72019041 79.43279207 C-0.60833048 70.77038576 -0.55341316 62.10790983 -0.50323606 53.44496083 C-0.39877057 35.6291577 -0.2229339 17.81469476 0 0 Z " fill="#D02654" transform="translate(61,231)"/>
<path d="M0 0 C0 8.25 0 16.5 0 25 C3.48323777 22.99222868 6.96636043 20.9842594 10.44921875 18.97583008 C12.20040015 17.96609926 13.95175998 16.95667793 15.703125 15.94726562 C16.8375 15.29306641 17.971875 14.63886719 19.140625 13.96484375 C20.28039795 13.31362549 21.4201709 12.66240723 22.59448242 11.99145508 C24.86783706 10.66205844 27.11613378 9.28887196 29.3371582 7.8737793 C30.38218506 7.21676025 31.42721191 6.55974121 32.50390625 5.8828125 C33.4276001 5.28227051 34.35129395 4.68172852 35.30297852 4.06298828 C38 3 38 3 41.00219727 3.67407227 C43.56584895 4.88026351 45.89246444 6.26037343 48.24121094 7.84228516 C50.94325188 9.62089123 53.75419282 11.203355 56.5559082 12.81860352 C59.33237273 14.42596711 62.08488675 16.07154823 64.83520508 17.72314453 C67.87151767 19.51404505 70.93933284 21.25104734 74 23 C73.67 15.74 73.34 8.48 73 1 C76.73255129 2.49302052 79.82962441 3.95145089 83.26171875 5.94921875 C84.28531494 6.54259033 85.30891113 7.13596191 86.36352539 7.74731445 C87.46043701 8.38757568 88.55734863 9.02783691 89.6875 9.6875 C90.84281708 10.35866231 91.99833825 11.02947341 93.15405273 11.69995117 C95.56081809 13.09651685 97.96669295 14.49459993 100.37207031 15.89355469 C104.99351625 18.5793197 109.62660987 21.24470963 114.25952148 23.91064453 C118.53025635 26.36973424 122.79614893 28.83715865 127.06201172 31.3046875 C129.84074516 32.9081049 132.62482273 34.50183473 135.41015625 36.09375 C136.98196034 36.99967129 138.5535889 37.90589721 140.125 38.8125 C140.83599854 39.21509033 141.54699707 39.61768066 142.27954102 40.0324707 C143.88694033 40.96552841 145.44992203 41.97453059 147 43 C147 43.66 147 44.32 147 45 C145.40885417 45.91796875 143.81770833 46.8359375 142.2265625 47.75390625 C141.18604736 48.35420654 140.14553223 48.95450684 139.07348633 49.57299805 C136.75302188 50.91172122 134.43254828 52.25042851 132.11206055 53.58911133 C126.58129767 56.77982233 121.05060704 59.97065811 115.52038574 63.16230774 C113.75173525 64.18303909 111.98305046 65.20371098 110.21435547 66.22436523 C107.99065465 67.50761328 105.76701907 68.79097439 103.54345703 70.07446289 C101.55642801 71.2210676 99.56641234 72.36251995 97.57275391 73.49755859 C95.99791562 74.41723546 94.4418018 75.3713009 92.92333984 76.38134766 C90.15038666 78.19638534 88.57584176 79.07564023 85.234375 78.63671875 C80.45439904 76.21786618 75.84973529 73.5567577 71.25 70.8125 C69.08632451 69.53580222 66.92224834 68.25978329 64.7578125 66.984375 C63.64180664 66.32501953 62.52580078 65.66566406 61.37597656 64.98632812 C55.9787367 61.81074644 50.55236 58.6862344 45.125 55.5625 C42.94008624 54.30341652 40.75519051 53.04430177 38.5703125 51.78515625 C37.48524414 51.16012207 36.40017578 50.53508789 35.28222656 49.89111328 C32.01825673 48.01051894 28.75505811 46.12859454 25.4921875 44.24609375 C24.41912354 43.62702148 23.34605957 43.00794922 22.24047852 42.37011719 C20.09225723 41.13035413 17.94430482 39.89012503 15.79663086 38.64941406 C10.73234048 35.72476425 5.66514867 32.80555238 0.5866394 29.90567017 C-1.80537117 28.53936128 -4.19559708 27.16994714 -6.58569336 25.80029297 C-8.26828963 24.83778986 -9.95344836 23.87977069 -11.63867188 22.921875 C-12.66154297 22.33535156 -13.68441406 21.74882812 -14.73828125 21.14453125 C-15.63587158 20.63253174 -16.53346191 20.12053223 -17.45825195 19.59301758 C-20.14734649 17.90765192 -22.56051152 16.02636921 -25 14 C-21.25024092 11.68431806 -17.4973822 9.37379879 -13.74072266 7.06933594 C-12.15214413 6.09346302 -10.56616608 5.11336014 -8.98046875 4.1328125 C-8.10003906 3.59398437 -7.21960938 3.05515625 -6.3125 2.5 C-5.13107422 1.77296875 -5.13107422 1.77296875 -3.92578125 1.03125 C-2 0 -2 0 0 0 Z " fill="#E6295D" transform="translate(169,196)"/>
<path d="M0 0 C0.15855469 0.96679688 0.31710938 1.93359375 0.48046875 2.9296875 C3.15372795 18.26045388 9.05122453 29.18869588 21.66137695 38.85131836 C24.36548069 40.7325557 26.86350693 41.99025636 30 43 C34.7180326 42.15301277 38.07804281 39.66031554 42 37 C44.70309075 35.41126966 47.44597765 33.89619506 50.1875 32.375 C50.87424805 31.98642822 51.56099609 31.59785645 52.26855469 31.19750977 C66.20266006 23.31622083 66.20266006 23.31622083 74 23 C76.49382852 24.28847807 78.3351565 25.42787766 80.5 27.125 C81.6405378 27.97667928 82.7811619 28.82824301 83.921875 29.6796875 C85.44554687 30.82824219 85.44554687 30.82824219 87 32 C88.24709495 32.75482063 89.49639639 33.50603898 90.75 34.25 C103.1214145 43.17465225 108.17104575 61.18699994 113.23461914 74.74023438 C113.56324951 75.61873047 113.89187988 76.49722656 114.23046875 77.40234375 C114.52332764 78.19116943 114.81618652 78.97999512 115.11791992 79.79272461 C115.97193429 81.92976969 116.93982883 83.95852298 118 86 C78.57897101 87.26559784 28.95805712 83.32385041 -2 56 C-8.16273554 49.76654454 -11.62345196 43.4051925 -14 35 C-14.19078125 34.360625 -14.3815625 33.72125 -14.578125 33.0625 C-16.67730498 22.7998423 -14.75587089 13.6943849 -9.0625 5.0625 C-6.45259871 2.45259871 -3.83397461 0 0 0 Z " fill="#FEC933" transform="translate(82,61)"/>
<path d="M0 0 C2.078125 1.34765625 2.078125 1.34765625 4.25 3.0625 C19.73812624 14.22676234 38.7403231 19.32224007 57 24 C54.44084745 26.89403091 51.53055174 28.55393972 48.1796875 30.44140625 C47.60788254 30.76572632 47.03607758 31.09004639 46.44694519 31.42419434 C44.59226901 32.47504641 42.73387389 33.51909395 40.875 34.5625 C38.32817744 35.99779371 35.78286913 37.43574866 33.23828125 38.875 C32.61181198 39.22885269 31.98534271 39.58270538 31.33988953 39.94728088 C27.7024215 42.00935663 24.10620283 44.12351035 20.54296875 46.3125 C19.77033691 46.78486084 18.99770508 47.25722168 18.20166016 47.74389648 C16.8149954 48.59865297 15.43521699 49.46472435 14.06396484 50.34399414 C11.50097516 51.91502322 9.59267316 52.99811251 6.546875 53.0078125 C2.91074692 51.56897654 -0.42191646 49.75375454 -3.8125 47.8125 C-4.57933105 47.38050293 -5.34616211 46.94850586 -6.13623047 46.50341797 C-14.03337195 42.03248341 -21.86147485 37.43857977 -29.67504883 32.82348633 C-35.03222844 29.67138924 -40.40059526 26.6999505 -46 24 C-43.4935945 21.19044738 -40.70065552 19.52888606 -37.44140625 17.671875 C-36.33216797 17.03636719 -35.22292969 16.40085938 -34.08007812 15.74609375 C-32.90764846 15.08055935 -31.73512207 14.41519534 -30.5625 13.75 C-28.29280887 12.45340484 -26.02327687 11.15653106 -23.75390625 9.859375 C-22.63387207 9.22580078 -21.51383789 8.59222656 -20.35986328 7.93945312 C-18.10228805 6.6362866 -15.86604419 5.29551528 -13.65185547 3.91992188 C-12.07428467 2.94635742 -12.07428467 2.94635742 -10.46484375 1.953125 C-9.53148193 1.36176758 -8.59812012 0.77041016 -7.63647461 0.16113281 C-4.53002452 -1.20698244 -3.17587626 -1.06698329 0 0 Z " fill="#E6295D" transform="translate(85,127)"/>
<path d="M0 0 C3.32504459 1.75190521 6.59410447 3.54108673 9.78125 5.53125 C10.67070312 6.06492187 10.67070312 6.06492187 11.578125 6.609375 C13.05919043 7.52394997 14.48837216 8.52148537 15.90625 9.53125 C15.90625 10.19125 15.90625 10.85125 15.90625 11.53125 C14.88789063 11.96953125 13.86953125 12.4078125 12.8203125 12.859375 C1.33654803 17.94757025 -8.91076949 24.19819373 -19.09375 31.53125 C-19.76664063 32.01561523 -20.43953125 32.49998047 -21.1328125 32.99902344 C-36.50691392 44.21568608 -45.85310661 58.18899813 -51.09375 76.53125 C-51.75375 76.53125 -52.41375 76.53125 -53.09375 76.53125 C-53.62162109 75.00757812 -53.62162109 75.00757812 -54.16015625 73.453125 C-57.89730354 62.92828127 -62.0184257 52.88577701 -69.59375 44.46875 C-70.41875 43.499375 -71.24375 42.53 -72.09375 41.53125 C-70.83702861 37.76108584 -69.79812669 37.52413597 -66.37109375 35.66796875 C-65.36965332 35.11794189 -64.36821289 34.56791504 -63.33642578 34.0012207 C-62.24571777 33.41300537 -61.15500977 32.82479004 -60.03125 32.21875 C-57.73464227 30.95761179 -55.43909513 29.69454054 -53.14453125 28.4296875 C-52.26350739 27.94563194 -52.26350739 27.94563194 -51.36468506 27.45179749 C-45.42430968 24.18125088 -39.56773261 20.77420619 -33.71875 17.34375 C-32.73463135 16.77100342 -31.7505127 16.19825684 -30.73657227 15.6081543 C-25.98277983 12.83704981 -21.25916886 10.02918716 -16.578125 7.13671875 C-15.71364746 6.61166748 -14.84916992 6.08661621 -13.95849609 5.5456543 C-12.34683783 4.56535265 -10.74476541 3.56903954 -9.15478516 2.55395508 C-3.93121307 -0.59563834 -3.93121307 -0.59563834 0 0 Z " fill="#E62A5D" transform="translate(258.09375,25.46875)"/>
<path d="M0 0 C8.96451601 4.29046567 17.54982929 8.99545427 26.08203125 14.08203125 C31.83363121 17.50869372 37.63558082 20.846975 43.4375 24.1875 C44.53731201 24.82131592 45.63712402 25.45513184 46.77026367 26.1081543 C50.17979881 28.07275816 53.58982496 30.03650712 57 32 C82.67764458 46.78454088 82.67764458 46.78454088 93.0625 52.875 C93.76511963 53.28596924 94.46773926 53.69693848 95.19165039 54.12036133 C99.87952283 56.87952283 99.87952283 56.87952283 101 58 C101.07271741 60.35313555 101.08370868 62.70833668 101.0625 65.0625 C101.05347656 66.35285156 101.04445313 67.64320313 101.03515625 68.97265625 C101.02355469 69.97167969 101.01195312 70.97070312 101 72 C82.87544488 62.15379607 64.92579769 52.01887172 47.1328125 41.5859375 C41.71199072 38.40930433 36.27189676 35.2672357 30.82348633 32.13818359 C28.58998522 30.85145248 26.36054183 29.55764868 24.13549805 28.25634766 C19.49093223 25.54337877 14.87260457 22.88631 10.02734375 20.546875 C6.22275906 18.65271028 3.03836085 17.0138974 0 14 C-1.19890983 9.09965241 -0.94606008 4.92652027 0 0 Z " fill="#C21B4A" transform="translate(155,285)"/>
<path d="M0 0 C0 4.62 0 9.24 0 14 C-1.7428125 14.99257812 -3.485625 15.98515625 -5.28125 17.0078125 C-17.90009955 24.20214458 -30.49667074 31.42995162 -43.03466797 38.76464844 C-53.72289467 45.015011 -64.44834145 51.20024538 -75.18066406 57.37451172 C-77.68395896 58.81778652 -80.18291679 60.26813574 -82.6796875 61.72265625 C-83.34145996 62.10631348 -84.00323242 62.4899707 -84.68505859 62.88525391 C-86.34356326 63.84680289 -88.00001529 64.8118901 -89.65625 65.77734375 C-92 67 -92 67 -94 67 C-94.59102408 62.20613799 -94.84883747 57.77270882 -94 53 C-91.85193649 50.60110105 -89.95318927 49.61590097 -87.01342773 48.33349609 C-84.18839341 47.08336748 -81.51609922 45.71060092 -78.8125 44.21875 C-77.85496826 43.69087891 -76.89743652 43.16300781 -75.91088867 42.61914062 C-71.37009181 40.09338664 -66.83556871 37.55738564 -62.3125 35 C-60.83317993 34.16359985 -60.83317993 34.16359985 -59.32397461 33.31030273 C-45.87401807 25.68458656 -32.5401108 17.8581799 -19.22265625 10.00390625 C-18.11849365 9.35478271 -17.01433105 8.70565918 -15.87670898 8.03686523 C-13.74512393 6.78358476 -11.61564684 5.52671057 -9.48852539 4.26586914 C-8.53582764 3.70633545 -7.58312988 3.14680176 -6.6015625 2.5703125 C-5.33820068 1.82418701 -5.33820068 1.82418701 -4.04931641 1.06298828 C-2 0 -2 0 0 0 Z " fill="#8F1437" transform="translate(451,231)"/>
<path d="M0 0 C0 5.28 0 10.56 0 16 C-1.52625 16.84820312 -3.0525 17.69640625 -4.625 18.5703125 C-17.0259362 25.48035607 -29.35611356 32.47137604 -41.55664062 39.73095703 C-42.50603516 40.29153809 -43.45542969 40.85211914 -44.43359375 41.4296875 C-45.26947021 41.92710449 -46.10534668 42.42452148 -46.96655273 42.93701172 C-49 44 -49 44 -51 44 C-51 86.9 -51 129.8 -51 174 C-51.33 174 -51.66 174 -52 174 C-52.51519308 155.45065848 -52.90246352 136.90277772 -53.13986778 118.34775257 C-53.25306246 109.73077842 -53.40717256 101.11826139 -53.65966797 92.50415039 C-53.87979488 84.99070165 -54.02106179 77.4804795 -54.06994689 69.96389598 C-54.09851332 65.98609772 -54.1649295 62.017523 -54.32606125 58.04270363 C-55.2655339 33.94614773 -55.2655339 33.94614773 -49.87193489 27.42839622 C-44.68079645 23.13227344 -38.97239505 20.47615319 -32.71115685 18.09377289 C-28.72184729 16.48434972 -25.17644995 14.2913985 -21.54296875 12.01171875 C-20.29974271 11.27554054 -19.05460485 10.54257031 -17.80664062 9.81445312 C-15.95603271 8.72726173 -14.10586682 7.63935841 -12.25708008 6.54907227 C-10.39524217 5.45123397 -8.53180617 4.35615803 -6.66796875 3.26171875 C-5.59828857 2.63225342 -4.5286084 2.00278809 -3.42651367 1.35424805 C-1 0 -1 0 0 0 Z " fill="#C5850E" transform="translate(357,284)"/>
<path d="M0 0 C0.33 0 0.66 0 1 0 C0.99032196 0.83858551 0.98064392 1.67717102 0.97067261 2.54116821 C0.88820179 10.45695941 0.85382776 18.37120079 0.87302971 26.28742409 C0.88121693 30.3571909 0.87102503 34.42515853 0.81835938 38.49462891 C0.76818148 42.42472113 0.76689824 46.35210931 0.79904556 50.28236008 C0.80278745 51.77906507 0.78911908 53.27592119 0.75750351 54.77229691 C0.66787761 59.32358056 0.70496658 63.59309109 2 68 C4.46888653 70.33948099 6.62308411 71.56402225 9.75915527 72.85339355 C10.49863403 73.23177368 11.23811279 73.61015381 12 74 C12.83876095 77.32149335 13.02708593 78.68305629 12.625 81.875 C12.57988281 82.56335938 12.53476563 83.25171875 12.48828125 83.9609375 C12.37137151 85.64443777 12.19197704 87.32340051 12 89 C4.44395313 85.41852114 -2.84024221 81.50663318 -9.97802734 77.15551758 C-14.23221504 74.57096387 -18.5221994 72.20961789 -22.98046875 69.9921875 C-37.89783189 62.328963 -37.89783189 62.328963 -39.96728516 57.95605469 C-40.87281764 53.4625438 -40.20846198 49.41271722 -39 45 C-34.23784868 46.38745532 -30.40170483 48.39806537 -26.1875 51 C-17.84774251 56.09298167 -9.42273442 61.04545034 -1 66 C-0.67 44.22 -0.34 22.44 0 0 Z " fill="#E6B72B" transform="translate(143,210)"/>
<path d="M0 0 C1.41789261 4.77643623 2.22314552 9.38989823 0 14 C-5.17123878 19.04355388 -12.23696797 22.01091178 -18.61376953 25.23925781 C-22.21190559 27.1101848 -25.71660396 29.0989545 -29.21484375 31.1484375 C-29.80847717 31.49610672 -30.4021106 31.84377594 -31.01373291 32.20198059 C-32.1968291 32.8960066 -33.37961251 33.59056608 -34.56207275 34.28567505 C-37.36330459 35.92891658 -40.17423041 37.55456411 -42.98828125 39.17578125 C-44.40427612 39.99429565 -44.40427612 39.99429565 -45.84887695 40.8293457 C-48 42 -48 42 -49 42 C-49.80368147 37.10922044 -50.01150773 32.87115838 -49 28 C-46.58227539 25.80761719 -46.58227539 25.80761719 -43.34765625 24.046875 C-42.76789032 23.7206012 -42.18812439 23.39432739 -41.59078979 23.0581665 C-40.36112172 22.36828795 -39.12521659 21.68942554 -37.88375854 21.02099609 C-35.43830237 19.6955602 -33.03973597 18.295602 -30.6363678 16.89575195 C-27.64496645 15.15874489 -24.63361259 13.45695686 -21.625 11.75 C-20.39441293 11.04968704 -19.16394385 10.3491667 -17.93359375 9.6484375 C-15.61983861 8.33085759 -13.30493282 7.01538302 -10.98925781 5.70117188 C-8.55662159 4.3167706 -6.13239371 2.91940348 -3.7109375 1.515625 C-1 0 -1 0 0 0 Z " fill="#8F1437" transform="translate(305,315)"/>
<path d="M0 0 C3.70346195 1.39567165 7.08714331 3.07204608 10.53515625 5.01171875 C11.59283203 5.60533203 12.65050781 6.19894531 13.74023438 6.81054688 C15.38475586 7.73963867 15.38475586 7.73963867 17.0625 8.6875 C18.13177734 9.28755859 19.20105469 9.88761719 20.30273438 10.50585938 C22.45719875 11.71782695 24.60617145 12.93960915 26.74951172 14.17114258 C28.95914341 15.41437158 31.19714239 16.60820784 33.45751953 17.7565918 C41.7168889 22.0949882 41.7168889 22.0949882 43.171875 26.74609375 C43.03265625 27.96425781 42.8934375 29.18242187 42.75 30.4375 C42.64171875 31.67371094 42.5334375 32.90992188 42.421875 34.18359375 C42.28265625 35.11300781 42.1434375 36.04242188 42 37 C36.0870345 35.30403315 31.32157283 32.40546063 26.12329102 29.22167969 C22.04433795 26.74357094 17.96737038 24.45564679 13.6640625 22.38671875 C3.23948002 17.22058802 3.23948002 17.22058802 0 14 C-1.57138317 8.99314185 -1.26108164 5.05170131 0 0 Z " fill="#C21B4A" transform="translate(61,231)"/>
<path d="M0 0 C0 0.66 0 1.32 0 2 C-1.05058594 2.50789063 -2.10117187 3.01578125 -3.18359375 3.5390625 C-20.74375972 12.10984672 -35.54143201 21.67310269 -44 40 C-45 37 -45 37 -44.1015625 34.65234375 C-40.2220167 27.51931642 -35.72029478 21.74993361 -30 16 C-29.40832031 15.37351562 -28.81664062 14.74703125 -28.20703125 14.1015625 C-21.72187747 7.77388486 -9.19044366 0 0 0 Z " fill="#FEFDD9" transform="translate(267,68)"/>
<path d="M0 0 C1.24040039 0.01353516 1.24040039 0.01353516 2.50585938 0.02734375 C4.52486708 0.05068488 6.54372356 0.08654712 8.5625 0.125 C8.5625 0.785 8.5625 1.445 8.5625 2.125 C7.99853516 2.20016846 7.43457031 2.27533691 6.85351562 2.3527832 C4.25510203 2.70471821 1.65889962 3.07101382 -0.9375 3.4375 C-1.824375 3.55544922 -2.71125 3.67339844 -3.625 3.79492188 C-10.79227275 4.82258231 -17.57107548 6.29046443 -23.4375 10.8125 C-24.4275 11.575625 -25.4175 12.33875 -26.4375 13.125 C-26.1165806 10.07626569 -25.87716971 8.54296927 -23.6171875 6.39453125 C-22.47636719 5.67330078 -22.47636719 5.67330078 -21.3125 4.9375 C-20.56742187 4.44894531 -19.82234375 3.96039063 -19.0546875 3.45703125 C-12.73277303 0.23945986 -6.92552374 -0.14509558 0 0 Z " fill="#FEFBCE" transform="translate(93.4375,52.875)"/>
<path d="M0 0 C8.80673077 4.46538462 8.80673077 4.46538462 9.78515625 7.171875 C9.85605469 7.77515625 9.92695313 8.3784375 10 9 C8.71086513 9.67154933 7.41859796 10.33708859 6.125 11 C5.40570313 11.37125 4.68640625 11.7425 3.9453125 12.125 C2 13 2 13 0 13 C0 8.71 0 4.42 0 0 Z " fill="#FED033" transform="translate(351,77)"/>
<path d="M0 0 C0.45246094 0.32871094 0.90492187 0.65742188 1.37109375 0.99609375 C6.50479219 4.57706677 11.81878938 7.52161226 17.375 10.375 C24.43912974 14.01484906 30.75773027 18.05202378 37 23 C36.01 23.495 36.01 23.495 35 24 C33.11157227 23.10717773 33.11157227 23.10717773 30.81640625 21.68359375 C29.55570313 20.91208984 29.55570313 20.91208984 28.26953125 20.125 C27.37621094 19.568125 26.48289062 19.01125 25.5625 18.4375 C23.74200514 17.31978877 21.92039812 16.20388685 20.09765625 15.08984375 C19.21867676 14.55214355 18.33969727 14.01444336 17.43408203 13.46044922 C13.73306751 11.23984051 9.94417095 9.23146321 6.09375 7.28125 C3.65968934 5.79175019 1.87437645 4.14701303 0 2 C0 1.34 0 0.68 0 0 Z " fill="#FCF4C9" transform="translate(100,184)"/>
<path d="M0 0 C0.94784216 2.5237725 1.15915069 3.61942227 0.1015625 6.1484375 C-5.88003093 15.1683006 -13.78922233 19.71865368 -24 23 C-24.66 23 -25.32 23 -26 23 C-26 22.34 -26 21.68 -26 21 C-25.2265625 20.70867187 -24.453125 20.41734375 -23.65625 20.1171875 C-12.05711581 15.55218172 -5.81939628 11.15384286 0 0 Z " fill="#FEFBCB" transform="translate(338,108)"/>
<path d="M0 0 C0.66 0.33 1.32 0.66 2 1 C-1.85386194 3.25052225 -5.70814411 5.50032384 -9.5625 7.75 C-10.64853516 8.38421875 -11.73457031 9.0184375 -12.85351562 9.671875 C-14.96087835 10.9017037 -17.06971765 12.12900644 -19.18017578 13.35351562 C-20.88464607 14.34874919 -22.58296621 15.35477264 -24.26904297 16.38085938 C-25.81296164 17.31113342 -27.40159642 18.16681295 -29 19 C-29.66 18.67 -30.32 18.34 -31 18 C-23.43929516 12.93157187 -15.77497519 8.17884457 -7.75 3.875 C-7.01144775 3.47289307 -6.27289551 3.07078613 -5.51196289 2.65649414 C-3.70773491 1.70538085 -1.8569034 0.84366159 0 0 Z " fill="#EA4756" transform="translate(284,68)"/>
<path d="M0 0 C5.94 0 11.88 0 18 0 C18 0.66 18 1.32 18 2 C13.64667264 2.84023188 9.55557481 3.10770995 5.125 3.0625 C3.97257812 3.05347656 2.82015625 3.04445312 1.6328125 3.03515625 C0.76398438 3.02355469 -0.10484375 3.01195312 -1 3 C-0.67 2.01 -0.34 1.02 0 0 Z " fill="#FEFDDF" transform="translate(84,53)"/>
<path d="M0 0 C6.6 0 13.2 0 20 0 C19 2 19 2 17.4375 2.625 C11.09420615 3.60089136 6.0076556 3.00255187 0 1 C0 0.67 0 0.34 0 0 Z " fill="#FEFAC0" transform="translate(178,147)"/>
<path d="M0 0 C4.7221901 0.48185613 7.70054372 2.69663433 11.3125 5.5625 C11.86228516 5.98724609 12.41207031 6.41199219 12.97851562 6.84960938 C14.3251827 7.89181259 15.66346201 8.94483843 17 10 C16.01 10.495 16.01 10.495 15 11 C12.37289239 9.63921729 9.89093298 8.23094597 7.375 6.6875 C6.66859375 6.27048828 5.9621875 5.85347656 5.234375 5.42382812 C3.45070255 4.34432752 1.72011849 3.17813469 0 2 C0 1.34 0 0.68 0 0 Z " fill="#E83C59" transform="translate(153,84)"/>
<path d="M0 0 C0.33 0.66 0.66 1.32 1 2 C-2.51548654 7.04395895 -7.11736877 10.37975847 -12 14 C-12.33 13.34 -12.66 12.68 -13 12 C-10.17074215 9.06595482 -7.17951204 6.54360963 -4 4 C-2.64852862 2.68505488 -1.30887458 1.35735142 0 0 Z " fill="#FEE438" transform="translate(338,115)"/>
<path d="M0 0 C0 0.66 0 1.32 0 2 C-3.3 3.32 -6.6 4.64 -10 6 C-10.33 5.01 -10.66 4.02 -11 3 C-9.73160474 2.49384702 -8.46016898 1.99530901 -7.1875 1.5 C-6.12595703 1.08234375 -6.12595703 1.08234375 -5.04296875 0.65625 C-3 0 -3 0 0 0 Z " fill="#FEFBCA" transform="translate(267,68)"/>
<path d="M0 0 C1 4 1 4 0.00390625 6.140625 C-0.47175781 6.83671875 -0.94742187 7.5328125 -1.4375 8.25 C-1.91058594 8.95640625 -2.38367188 9.6628125 -2.87109375 10.390625 C-3.24363281 10.92171875 -3.61617188 11.4528125 -4 12 C-4.66 11.34 -5.32 10.68 -6 10 C-4.02 6.7 -2.04 3.4 0 0 Z " fill="#FEF9BB" transform="translate(338,108)"/>
<path d="M0 0 C0.66 0 1.32 0 2 0 C-0.33333333 4.66666667 -2.66666667 9.33333333 -5 14 C-6 11 -6 11 -4.78515625 8.30078125 C-4.21667969 7.31464844 -3.64820313 6.32851562 -3.0625 5.3125 C-2.49660156 4.31863281 -1.93070313 3.32476562 -1.34765625 2.30078125 C-0.90292969 1.54152344 -0.45820313 0.78226562 0 0 Z " fill="#FEFAC1" transform="translate(228,94)"/>
<path d="M0 0 C0.33 0.66 0.66 1.32 1 2 C-0.65 3.65 -2.3 5.3 -4 7 C-4 4 -4 4 -2 1.8125 C-1.34 1.214375 -0.68 0.61625 0 0 Z " fill="#FCD73D" transform="translate(338,115)"/>
</svg>
